<?xml version="1.0" encoding="utf-8"?>
<!-- Generator: Adobe Illustrator 25.1.0, SVG Export Plug-In . SVG Version: 6.00 Build 0)  -->
<svg version="1.1" id="Layer_1" focusable="false" xmlns="http://www.w3.org/2000/svg" xmlns:xlink="http://www.w3.org/1999/xlink"
	 x="0px" y="0px" viewBox="0 0 448 116" style="enable-background:new 0 0 448 116;" xml:space="preserve">
<path d="M16,36h416c8.8,0,16-3.6,16-8V8c0-4.4-7.2-8-16-8H16C7.2,0,0,3.6,0,8v20C0,32.4,7.2,36,16,36z"/>
<path d="M16,116h416c8.8,0,16-3.6,16-8V88c0-4.4-7.2-8-16-8H16c-8.8,0-16,3.6-16,8v20C0,112.4,7.2,116,16,116z"/>
</svg>
