<svg id="Layer_1" data-name="Layer 1" xmlns="http://www.w3.org/2000/svg" viewBox="0 0 17 19.87"><defs><style>.cls-1{fill:#86868b;}</style></defs><path id="bag" class="cls-1" d="M14.5,3.87H12.71a4.23,4.23,0,0,0-8.42,0H2.5A2.5,2.5,0,0,0,0,6.37v11a2.5,2.5,0,0,0,2.5,2.5h12a2.5,2.5,0,0,0,2.5-2.5v-11A2.5,2.5,0,0,0,14.5,3.87ZM8.5,1a3.23,3.23,0,0,1,3.21,2.87H5.29A3.23,3.23,0,0,1,8.5,1ZM16,17.37a1.5,1.5,0,0,1-1.5,1.5H2.5A1.5,1.5,0,0,1,1,17.37H1v-11a1.5,1.5,0,0,1,1.5-1.5h12A1.5,1.5,0,0,1,16,6.37Z"/></svg>