<svg viewBox="0 0 40 56" xmlns="http://www.w3.org/2000/svg"><g fill="#6e6e73"><path d="m25.13 35.92v-1.13a4.47 4.47 0 0 1 -4.2-3.11 3.26 3.26 0 0 1 -.05-.45.77.77 0 0 1 .8-.82.85.85 0 0 1 .84.71 2.76 2.76 0 0 0 2.61 2.1v-4.7h-.13c-2.54-.59-3.83-1.74-3.83-3.63 0-2 1.66-3.48 4-3.72v-1.09a.63.63 0 0 1 .67-.66.64.64 0 0 1 .66.66v1.05a4.25 4.25 0 0 1 3.93 3 1.8 1.8 0 0 1 .06.45.78.78 0 0 1 -.81.82.86.86 0 0 1 -.84-.7 2.72 2.72 0 0 0 -2.34-2v4.45h.25c2.64.51 4 1.72 4 3.75 0 2.25-1.82 3.63-4.22 3.85v1.11a.67.67 0 0 1 -1.33 0zm0-13.2c-1.36.21-2.26 1-2.26 2.05s.68 1.6 2.17 2h.09zm1.33 10.5c1.64-.15 2.54-1.01 2.54-2.22s-.6-1.68-2.19-2.11l-.33-.08z"/><path d="m9.46 32.39a1.86 1.86 0 0 1 -.14-.7.92.92 0 0 1 1-1 1 1 0 0 1 1 .75 3.3 3.3 0 0 0 3.4 2c1.76 0 3.17-.86 3.17-2.25 0-1.13-.69-1.64-2.58-2.17l-2.21-.6c-2.34-.65-3.55-1.72-3.55-3.59 0-2.41 2.14-4.11 5.19-4.11 2.56 0 4.38 1.2 4.9 2.84a1.84 1.84 0 0 1 .14.68.87.87 0 0 1 -1 .94 1 1 0 0 1 -1-.73 3 3 0 0 0 -3.15-2c-1.7 0-2.85.92-2.85 2.27 0 .95.63 1.54 2.19 1.95l2 .57c2.69.72 4.08 1.79 4.08 3.75 0 2.58-2.21 4.22-5.57 4.22-2.62.04-4.48-1.29-5.02-2.82z"/><path d="m20 10.7a17.3 17.3 0 1 1 -17.3 17.3 17.32 17.32 0 0 1 17.3-17.3m0-2.2a19.5 19.5 0 1 0 19.5 19.5 19.5 19.5 0 0 0 -19.5-19.5z"/></g></svg>